<?xml version="1.0" encoding="UTF-8" standalone="no"?>
<svg width="32" height="32" viewBox="0 0 32 32" version="1.1" xmlns="http://www.w3.org/2000/svg">
<style>
.icon {
 display: none;
}
.icon:target {
 display: inline;
}
</style>
<g stroke="#e0f7ff" fill="#e0f7ff">
 <g id="nst-icons" stroke-linecap="round" stroke-width="6">
  <path id="menu" class="icon" d="M3,3H29M3,16H29M3,29H29"/>
  <path id="close" class="icon" d="M3,3L29,29M3,29L29,3"/>
  <g id="search" class="icon">
   <circle cx="13" cy="13" r="9" fill="none"/><path d="M20,20L29,29"/>
  </g>
 </g>
<!-- These are larger than 32x32, so translate and use named views -->
 <view id="github" viewBox="0.5 40 33 33" />
 <path id="github" transform="translate(1,41)"
  d="M 15.998527,0 C 7.1633875,0 0,7.344673 0,16.405419 c 0,7.247993 4.5840569,13.396249 10.942018,15.566518 0.800516,0.150044
  1.092237,-0.356508 1.092237,-0.791568 0,-0.388738 -0.01375,-1.420999 -0.02161,-2.789628 -4.4504734,0.990971 -5.3894828,-2.199474
  -5.3894828,-2.199474 -0.7278309,-1.894328 -1.77685,-2.398877 -1.77685,-2.398877 -1.4527151,-1.018164 0.1100092,-0.998022
  0.1100092,-0.998022 1.6059425,0.116822 2.4506584,1.690896 2.4506584,1.690896 1.4271772,2.506636 3.7452342,1.782541
  4.6567422,1.363594 0.14537,-1.060461 0.557905,-1.783548 1.015624,-2.193432 -3.5527185,-0.413912 -7.2881309,-1.821817
  -7.2881309,-8.108044 0,-1.790597 0.6237146,-3.254899 1.6471962,-4.401969 -0.1650146,-0.414919 -0.7140798,-2.0826525
  0.1561743,-4.3415449 0,0 1.3436876,-0.4411032 4.4003804,1.6818325 1.275914,-0.3635579 2.64514,-0.5458404 4.005525,-0.5518827
  1.358421,0.00605 2.727647,0.1883237 4.005525,0.5518827 3.054729,-2.1229357 4.395469,-1.6818325 4.395469,-1.6818325
  0.873201,2.2588924 0.324136,3.9266259 0.159123,4.3415449 1.025446,1.14707 1.645232,2.611372 1.645232,4.401969 0,6.30234
  -3.741306,7.689097 -7.305811,8.094952 0.574604,0.506564 1.086344,1.507607 1.086344,3.038376 0,2.192426 -0.01966,3.961873
  -0.01966,4.499659 0,0.439088 0.287793,0.94968 1.100095,0.789552 C 27.419871,29.795625 32,23.651398 32,16.405419 32,7.344673
  24.83563,0 15.998527,0" />
 <view id="twitter" viewBox="40 0 400 400" />
 <path id="twitter-icon" transform="translate(40)"
  d="M350,400H50c-27.6,0-50-22.4-50-50V50C0,22.4,22.4,0,50,0h300c27.6,0,50,22.4,50,50v300
  C400,377.6,377.6,400,350,400z M153.6,301.6c94.3,0,145.9-78.2,145.9-145.9c0-2.2,0-4.4-0.1-6.6c10-7.2,18.7-16.3,25.6-26.6
  c-9.2,4.1-19.1,6.8-29.5,8.1c10.6-6.3,18.7-16.4,22.6-28.4c-9.9,5.9-20.9,10.1-32.6,12.4c-9.4-10-22.7-16.2-37.4-16.2
  c-28.3,0-51.3,23-51.3,51.3c0,4,0.5,7.9,1.3,11.7c-42.6-2.1-80.4-22.6-105.7-53.6c-4.4,7.6-6.9,16.4-6.9,25.8
  c0,17.8,9.1,33.5,22.8,42.7c-8.4-0.3-16.3-2.6-23.2-6.4c0,0.2,0,0.4,0,0.7c0,24.8,17.7,45.6,41.1,50.3c-4.3,1.2-8.8,1.8-13.5,1.8
  c-3.3,0-6.5-0.3-9.6-0.9c6.5,20.4,25.5,35.2,47.9,35.6c-17.6,13.8-39.7,22-63.7,22c-4.1,0-8.2-0.2-12.2-0.7
  C97.7,293.1,124.7,301.6,153.6,301.6"/>

 <view id="facebook" viewBox="500 0 201.6 201.6" />
 <path id="facebook-icon" transform="translate(500)"
  d="M 198.45,101.40715 C 198.45,47.168394 154.7036,3.15 100.8,3.15 46.896395,3.15 3.15,47.168394 3.15,101.40715 3.15,150.48513
  38.851081,191.1642 85.61447,198.45 V 129.74083 H 60.673996 V 101.40715 H 85.61447 V 79.752124 c 0,-24.589585 14.48157,-38.250466
  36.80731,-38.250466 10.66004,0 21.72235,2.023834 21.72235,2.023834 v 23.982435 h -12.2691 c -12.16854,0 -15.99007,7.69057
  -15.99007,15.38114 v 18.416893 h 27.15294 l -4.32436,28.33368 h -22.82858 v 68.70917 C 162.74892,191.1642 198.45,150.48513
  198.45,101.40715 Z"/>
 <view id="reddit" viewBox="785 85 172 172" />
 <g id="reddit-icon" transform="translate(700)">
  <mask id="reddit-mask">
   <rect fill="white" x="85" y="85" height="172" width="172"/>
   <path fill="black" d="M227.9,170.9c0-6.9-5.6-12.5-12.5-12.5c-3.4,0-6.4,1.3-8.6,3.5c-8.5-6.1-20.3-10.1-33.3-10.6l5.7-26.7
   l18.5,3.9c0.2,4.7,4.1,8.5,8.9,8.5c4.9,0,8.9-4,8.9-8.9c0-4.9-4-8.9-8.9-8.9c-3.5,0-6.5,2-7.9,5l-20.7-4.4c-0.6-0.1-1.2,0-1.7,0.3
   c-0.5,0.3-0.8,0.8-1,1.4l-6.3,29.8c-13.3,0.4-25.2,4.3-33.8,10.6c-2.2-2.1-5.3-3.5-8.6-3.5c-6.9,0-12.5,5.6-12.5,12.5
   c0,5.1,3,9.4,7.4,11.4c-0.2,1.2-0.3,2.5-0.3,3.8c0,19.2,22.3,34.7,49.9,34.7s49.9-15.5,49.9-34.7c0-1.3-0.1-2.5-0.3-3.7
   C224.8,180.4,227.9,176,227.9,170.9z M142.4,179.8c0-4.9,4-8.9,8.9-8.9c4.9,0,8.9,4,8.9,8.9c0,4.9-4,8.9-8.9,8.9
   C146.4,188.7,142.4,184.7,142.4,179.8z M192.1,203.3c-6.1,6.1-17.7,6.5-21.1,6.5c-3.4,0-15.1-0.5-21.1-6.5c-0.9-0.9-0.9-2.4,0-3.3
   c0.9-0.9,2.4-0.9,3.3,0c3.8,3.8,12,5.2,17.9,5.2s14-1.4,17.9-5.2c0.9-0.9,2.4-0.9,3.3,0C193,201,193,202.4,192.1,203.3z
   M190.5,188.7c-4.9,0-8.9-4-8.9-8.9c0-4.9,4-8.9,8.9-8.9c4.9,0,8.9,4,8.9,8.9C199.4,184.7,195.4,188.7,190.5,188.7z"/>
  </mask>
  <circle cx="170.9" cy="170.9" r="85.5" mask="url(#reddit-mask)"/>
 </g>
</g>
</svg>
